:FULLY-SPECIFIED
:FORCE-ALL-JOINTS-BE-3DOF
:DEGREES
340
root 8.20808 16.0637 -20.4431 11.2062 23.9642 4.23359
lfemur -8.75129 15.7626 -10.1606
ltibia 39.4289 0 0
lfoot 7.5158 28.5513 0
ltoes -31.0621 0 0
rfemur -48.4925 -14.7591 10.0751
rtibia 55.6705 0 0
rfoot 2.7957 -18.6301 0
rtoes -1.78939 0 0
lowerback -1.19173 -1.84851 -1.58153
upperback 1.66824 -2.4271 -0.0609748
thorax 2.44333 -1.23806 0.7425
lowerneck -5.614 -8.68408 -0.59784
upperneck -2.13979 -11.5576 6.64848
head 0.723803 -5.71885 1.87347
lclavicle 9.2228e-15 5.57409e-15 0
lhumerus -48.3653 -34.402 109.749
lradius 57.3323 0 0
lwrist 20.9713 0 0
lhand 6.05816 12.3672 0
lfingers 7.12502 0 0
lthumb 31.378 39.6888 0
rclavicle 9.2228e-15 5.57409e-15 0
rhumerus -22.2202 19.0174 -73.6208
rradius 85.1424 0 0
rwrist 2.16568 0 0
rhand 9.16289 -10.7849 0
rfingers 7.12502 0 0
rthumb 34.2371 -756.652 0
341
root 8.13982 16.0988 -20.2494 10.9401 22.1663 3.5746
lfemur -8.04413 14.3845 -9.36039
ltibia 39.8611 0 0
lfoot 9.18655 29.0918 0
ltoes -29.3217 0 0
rfemur -48.342 -15.4053 12.058
rtibia 55.2966 0 0
rfoot 1.79631 -17.5574 0
rtoes -4.32992 0 0
lowerback -1.3992 -1.74937 -1.31937
upperback 1.60376 -2.30136 0.0689367
thorax 2.48515 -1.17195 0.727835
lowerneck -5.83787 -8.38792 -0.615616
upperneck -1.76543 -11.1835 6.54679
head 0.861162 -5.52047 1.83845
lclavicle 2.06236e-15 3.84588e-15 0
lhumerus -48.3095 -33.275 109.417
lradius 57.0418 0 0
lwrist 21.2027 0 0
lhand 5.43234 12.0929 0
lfingers 7.12502 0 0
lthumb 30.7816 39.5289 0
rclavicle 2.06236e-15 3.84588e-15 0
rhumerus -23.8772 18.2925 -75.7691
rradius 84.9872 0 0
rwrist 2.07946 0 0
rhand 2.36796 -12.3845 0
rfingers 7.12502 0 0
rthumb 27.7662 -759.478 0
342
root 8.07046 16.1347 -20.0588 10.6544 20.3878 2.9322
lfemur -7.37962 13.065 -8.5782
ltibia 40.4133 0 0
lfoot 10.6145 29.5674 0
ltoes -27.1924 0 0
rfemur -48.1189 -16.0102 13.9962
rtibia 54.883 0 0
rfoot 0.772962 -16.4451 0
rtoes -6.15925 0 0
lowerback -1.55548 -1.64758 -1.06603
upperback 1.55631 -2.17291 0.194976
thorax 2.51616 -1.10459 0.715857
lowerneck -6.05503 -8.09473 -0.628911
upperneck -1.39608 -10.8128 6.43643
head 0.995494 -5.32438 1.80111
lclavicle -4.47913e-15 1.33875e-15 0
lhumerus -48.2424 -32.1992 109.084
lradius 56.7594 0 0
lwrist 21.2829 0 0
lhand 4.8243 11.7824 0
lfingers 7.12502 0 0
lthumb 30.2018 39.3278 0
rclavicle -4.47913e-15 1.33875e-15 0
rhumerus -25.4801 17.575 -77.8506
rradius 84.7702 0 0
rwrist 2.06427 0 0
rhand -4.99118 -13.8329 0
rfingers 7.12502 0 0
rthumb 20.7392 -762.071 0
343
root 8.00231 16.1699 -19.878 10.3595 18.6899 2.33068
lfemur -6.78627 11.8554 -7.84305
ltibia 41.0759 0 0
lfoot 11.7275 29.9532 0
ltoes -24.6811 0 0
rfemur -47.8236 -16.5528 15.8145
rtibia 54.4455 0 0
rfoot -0.243273 -15.3285 0
rtoes -7.23394 0 0
lowerback -1.65418 -1.54741 -0.831999
upperback 1.52789 -2.04704 0.312913
thorax 2.53519 -1.03877 0.708024
lowerneck -6.25633 -7.81418 -0.637397
upperneck -1.04566 -10.4576 6.31964
head 1.12145 -5.13706 1.7624
lclavicle -3.72963e-15 -2.53146e-15 0
lhumerus -48.1653 -31.2113 108.763
lradius 56.4957 0 0
lwrist 21.2075 0 0
lhand 4.25014 11.4456 0
lfingers 7.12502 0 0
lthumb 29.6542 39.0924 0
rclavicle -3.72963e-15 -2.53146e-15 0
rhumerus -26.9685 16.8926 -79.7894
rradius 84.495 0 0
rwrist 2.12586 0 0
rhand -12.5541 -15.1091 0
rfingers 7.12502 0 0
rthumb 13.4964 -764.311 0
344
root 7.93769 16.2032 -19.7134 10.0655 17.134 1.79433
lfemur -6.2926 10.8071 -7.184
ltibia 41.8393 0 0
lfoot 12.4536 30.2242 0
ltoes -21.7952 0 0
rfemur -47.4568 -17.0123 17.4382
rtibia 53.9997 0 0
rfoot -1.22134 -14.2428 0
rtoes -7.51052 0 0
lowerback -1.6889 -1.45313 -0.62779
upperback 1.52046 -1.92902 0.418519
thorax 2.54107 -0.977288 0.705791
lowerneck -6.43265 -7.55596 -0.640744
upperneck -0.728057 -10.1301 6.19864
head 1.23367 -4.96503 1.72327
lclavicle 1.09829e-14 -8.34896e-15 0
lhumerus -48.0794 -30.3479 108.462
lradius 56.2613 0 0
lwrist 20.9721 0 0
lhand 3.72593 11.0925 0
lfingers 7.12502 0 0
lthumb 29.154 38.8297 0
rclavicle 1.09829e-14 -8.34896e-15 0
rhumerus -28.2821 16.2733 -81.5099
rradius 84.1651 0 0
rwrist 2.27 0 0
rhand -19.9603 -16.1925 0
rfingers 7.12502 0 0
rthumb 6.37809 -766.076 0
345
root 7.86685 16.2326 -19.5559 9.72297 15.6629 1.36031
lfemur -6.0954 10.1399 -6.58714
ltibia 43.2023 0 0
lfoot 12.4212 29.561 0
ltoes -15.84 0 0
rfemur -46.6873 -17.3581 18.6731
rtibia 53.4647 0 0
rfoot -2.41365 -12.9548 0
rtoes -6.6581 0 0
lowerback -1.54788 -1.3722 -0.507866
upperback 1.56446 -1.82677 0.518561
thorax 2.50462 -0.925152 0.747872
lowerneck -6.54888 -7.30507 -0.635419
upperneck -0.452119 -9.8071 6.03268
head 1.32157 -4.79914 1.67402
lclavicle 6.98756e-15 -5.20028e-15 0
lhumerus -47.942 -29.6707 108.169
lradius 56.0929 0 0
lwrist 20.4568 0 0
lhand 3.10912 10.7378 0
lfingers 7.12502 0 0
lthumb 28.5644 38.5721 0
rclavicle 6.98756e-15 -5.20028e-15 0
rhumerus -29.3789 15.6347 -82.9257
rradius 83.6126 0 0
rwrist 2.8517 0 0
rhand -26.062 -18.8832 0
rfingers 7.12502 0 0
rthumb 0.487453 -768.704 0
346
root 7.78827 16.2617 -19.3866 9.34349 14.106 0.918408
lfemur -5.99191 9.56436 -5.94703
ltibia 44.8372 0 0
lfoot 12.4394 28.31 0
ltoes -9.17419 0 0
rfemur -45.7447 -17.7071 19.8873
rtibia 52.8649 0 0
rfoot -3.77224 -11.5208 0
rtoes -5.68048 0 0
lowerback -1.35216 -1.28783 -0.408174
upperback 1.61932 -1.7193 0.627442
thorax 2.44925 -0.870859 0.811234
lowerneck -6.65554 -7.04086 -0.627926
upperneck -0.166337 -9.46592 5.85035
head 1.40996 -4.62473 1.62052
lclavicle 1.9799e-15 -1.39091e-15 0
lhumerus -47.7803 -29.0054 107.862
lradius 55.9414 0 0
lwrist 19.9281 0 0
lhand 2.41398 10.4145 0
lfingers 7.12502 0 0
lthumb 27.8997 38.3553 0
rclavicle 1.9799e-15 -1.39091e-15 0
rhumerus -30.5334 14.8855 -84.3551
rradius 82.9956 0 0
rwrist 3.53833 0 0
rhand -31.7631 -22.5587 0
rfingers 7.12502 0 0
rthumb -5.01394 -772.246 0
